HIERARCHY
ROOT Hips
{
	OFFSET 0.000000 0.000000 0.000000
	CHANNELS 6 Xposition Yposition Zposition Xrotation Yrotation Zrotation
	JOINT LeftUpLeg_virtual
	{
		OFFSET 0.000000 0.000000 0.000000
		CHANNELS 3 Xrotation Yrotation Zrotation
		JOINT LeftUpLeg
		{
			OFFSET 10.205400 -3.823500 0.155100
			CHANNELS 3 Xrotation Yrotation Zrotation
			JOINT LeftLeg
			{
				OFFSET 0.708757 -12.982077 0.567790
				CHANNELS 3 Xrotation Yrotation Zrotation
				JOINT LeftFoot
				{
					OFFSET -0.708756 -10.717838 -2.184338
					CHANNELS 3 Xrotation Yrotation Zrotation
					JOINT LeftToeBase
					{
						OFFSET 0.108149 -7.191104 7.560241
						CHANNELS 3 Xrotation Yrotation Zrotation
						JOINT LeftToe_End
						{
							OFFSET 0.070230 0.081724 4.490308
							CHANNELS 3 Xrotation Yrotation Zrotation
							End Site
							{
								OFFSET 0 0 0
							}
						}
					}
				}
			}
		}
	}
	JOINT RightUpLeg_virtual
	{
		OFFSET 0.000000 0.000000 0.000000
		CHANNELS 3 Xrotation Yrotation Zrotation
		JOINT RightUpLeg
		{
			OFFSET -10.205400 -3.823500 0.005500
			CHANNELS 3 Xrotation Yrotation Zrotation
			JOINT RightLeg
			{
				OFFSET -0.708756 -12.982134 0.610632
				CHANNELS 3 Xrotation Yrotation Zrotation
				JOINT RightFoot
				{
					OFFSET 0.708754 -10.717769 -1.945823
					CHANNELS 3 Xrotation Yrotation Zrotation
					JOINT RightToeBase
					{
						OFFSET -0.108140 -7.191069 7.372968
						CHANNELS 3 Xrotation Yrotation Zrotation
						JOINT RightToe_End
						{
							OFFSET -0.070227 0.081735 4.479403
							CHANNELS 3 Xrotation Yrotation Zrotation
							End Site
							{
								OFFSET 0 0 0
							}
						}
					}
				}
			}
		}
	}
	JOINT Spine_virtual
	{
		OFFSET 0.000000 0.000000 0.000000
		CHANNELS 3 Xrotation Yrotation Zrotation
		JOINT Spine
		{
			OFFSET 0.000000 6.876099 0.125700
			CHANNELS 3 Xrotation Yrotation Zrotation
			JOINT Spine1
			{
				OFFSET 0.000000 5.730043 0.104720
				CHANNELS 3 Xrotation Yrotation Zrotation
				JOINT Spine1_split
				{
					OFFSET 0.000000 5.730043 0.104720
					CHANNELS 3 Xrotation Yrotation Zrotation
					JOINT Spine2
					{
						OFFSET 0.000000 5.730043 0.104720
						CHANNELS 3 Xrotation Yrotation Zrotation
						JOINT Neck_virtual
						{
							OFFSET 0.000000 0.000000 0.000000
							CHANNELS 3 Xrotation Yrotation Zrotation
							JOINT Neck
							{
								OFFSET 0.000000 10.314075 0.188496
								CHANNELS 3 Xrotation Yrotation Zrotation
								JOINT Head
								{
									OFFSET 0.000000 7.643700 -2.377400
									CHANNELS 3 Xrotation Yrotation Zrotation
									JOINT HeadTop_End
									{
										OFFSET 0.000000 43.788605 -13.619600
										CHANNELS 3 Xrotation Yrotation Zrotation
										End Site
										{
											OFFSET 0 0 0
										}
									}
								}
							}
						}
						JOINT LeftShoulder_virtual
						{
							OFFSET 0.000000 0.000000 0.000000
							CHANNELS 3 Xrotation Yrotation Zrotation
							JOINT LeftShoulder
							{
								OFFSET 2.196100 4.412489 0.087492
								CHANNELS 3 Xrotation Yrotation Zrotation
								JOINT LeftShoulder_split
								{
									OFFSET 2.196100 4.412489 0.087492
									CHANNELS 3 Xrotation Yrotation Zrotation
									JOINT LeftArm
									{
										OFFSET 8.771219 -2.981674 -0.026999
										CHANNELS 3 Xrotation Yrotation Zrotation
										JOINT LeftForeArm
										{
											OFFSET 8.512804 0.000000 -0.000000
											CHANNELS 3 Xrotation Yrotation Zrotation
											JOINT LeftHand
											{
												OFFSET 18.484802 0.000000 -0.000000
												CHANNELS 3 Xrotation Yrotation Zrotation
												End Site
												{
													OFFSET 0 0 0
												}
											}
										}
									}
								}
							}
						}
						JOINT RightShoulder_virtual
						{
							OFFSET 0.000000 0.000000 0.000000
							CHANNELS 3 Xrotation Yrotation Zrotation
							JOINT RightShoulder
							{
								OFFSET -2.196100 4.412496 0.070690
								CHANNELS 3 Xrotation Yrotation Zrotation
								JOINT RightShoulder_split
								{
									OFFSET -2.196100 4.412496 0.070690
									CHANNELS 3 Xrotation Yrotation Zrotation
									JOINT RightArm
									{
										OFFSET -8.771282 -2.981682 -0.094208
										CHANNELS 3 Xrotation Yrotation Zrotation
										JOINT RightForeArm
										{
											OFFSET -8.494598 0.000000 0.000000
											CHANNELS 3 Xrotation Yrotation Zrotation
											JOINT RightHand
											{
												OFFSET -18.483803 0.000000 0.000001
												CHANNELS 3 Xrotation Yrotation Zrotation
												End Site
												{
													OFFSET 0 0 0
												}
											}
										}
									}
								}
							}
						}
					}
				}
			}
		}
	}
}
MOTION
Frames: 10
Frame Time: 0.03333333
-0.360602 28.892895 0.469263 0.000000 0.000000 0.000000 6.195648 60.847492 -9.351625 -7.752441 8.676689 20.120463 50.763796 -6.361489 14.385101 -33.710989 9.230149 -27.118732 -12.169621 0.216294 -1.344822 0.000000 0.000000 0.000000 8.089121 61.018069 -10.770179 -18.663149 7.334316 -28.236337 25.322090 13.393080 0.509078 -16.406215 7.165666 15.341693 -5.702349 -1.088474 0.756431 0.000000 0.000000 0.000000 7.749360 62.754303 -8.836085 0.541612 -3.712725 -1.374728 2.772321 -0.645760 -0.382012 1.219080 -0.225685 0.100339 0.000000 0.000000 0.000000 1.719162 -1.104007 -0.095933 -6.598564 -10.406833 -1.930300 -2.858865 -40.975486 5.672629 0.000000 0.000000 0.000000 1.653139 -1.044037 -0.286739 0.394237 -8.242513 -9.162582 -2.956307 -0.211389 -1.865959 3.126350 -46.177475 -46.329829 175.074250 -73.279843 173.829708 0.000000 0.000000 0.000000 2.358402 -0.832174 -0.307885 -0.109452 -2.315839 8.902796 -3.487530 5.986143 -0.577958 -22.893836 -6.864456 46.877531 -178.353943 66.258784 178.265765 0.000000 0.000000 0.000000 
-0.387088 29.844652 0.430124 0.000000 0.000000 0.000000 5.928161 59.031228 -9.305486 -7.290659 7.337492 20.644300 48.438301 -3.439305 12.275219 -30.194115 9.874967 -22.927576 -10.362713 0.489370 -2.813777 0.000000 0.000000 0.000000 8.373785 58.566324 -10.701708 -17.920360 5.595780 -27.443710 21.035822 14.431558 0.957153 -13.639719 8.793135 19.829462 -8.407269 -0.223817 -0.091551 0.000000 0.000000 0.000000 7.746941 60.149310 -8.819051 0.146163 -3.805763 -0.874657 2.502784 -0.682132 -0.287698 1.439867 -0.242122 0.079974 0.000000 0.000000 0.000000 2.054289 -1.033007 -0.085842 -6.285323 -10.243776 -1.601063 -2.537090 -40.907437 5.663067 0.000000 0.000000 0.000000 1.673338 -1.059740 -0.167545 0.398799 -8.521889 -8.333173 -3.607011 -1.127705 -0.682863 -0.192082 -46.558111 -46.617421 176.456284 -72.014100 175.475005 0.000000 0.000000 0.000000 2.383368 -0.807066 -0.188617 -0.032048 -2.120326 8.668649 -3.914502 4.812113 -1.425276 -24.298625 -7.452641 46.031531 -178.941517 64.912137 178.576566 0.000000 0.000000 0.000000 
-0.270386 31.487122 0.066381 0.000000 0.000000 0.000000 5.656846 55.856727 -9.206812 -8.581439 5.670767 21.297985 45.381119 -0.372857 9.521431 -20.667698 8.930217 -19.597764 -5.759793 0.781800 -7.057009 0.000000 0.000000 0.000000 8.750704 54.307968 -10.623038 -16.338120 3.588962 -25.125343 13.593734 14.856964 2.045065 -10.321517 10.678459 22.822730 -8.491045 0.621296 -0.468479 0.000000 0.000000 0.000000 7.897373 55.674136 -8.832759 -0.204706 -3.610583 -0.015355 2.265408 -0.582826 -0.271266 1.502375 -0.050246 0.158996 0.000000 0.000000 0.000000 2.439941 -0.826534 -0.140026 -5.796881 -9.669742 -1.092892 -1.926978 -39.556320 5.709990 0.000000 0.000000 0.000000 1.820723 -0.902314 -0.101945 0.426185 -8.273886 -6.977105 -3.291929 -1.687630 -0.549209 -4.926395 -46.257149 -46.692748 177.950907 -69.993053 177.079771 0.000000 0.000000 0.000000 2.415624 -0.711470 -0.192410 0.094525 -1.562950 8.224466 -3.801530 3.492994 -1.373193 -26.436252 -6.469799 43.605673 -178.840840 63.491977 178.224361 0.000000 0.000000 0.000000 
-0.019717 33.284504 -0.551382 0.000000 0.000000 0.000000 5.043384 51.107150 -8.847135 -10.720191 4.114459 21.765112 43.483986 1.648200 7.063061 -6.013710 5.985546 -17.710571 -8.359030 1.027246 -9.381781 0.000000 0.000000 0.000000 8.258048 48.914611 -10.004663 -14.737878 1.398962 -21.718180 7.236642 13.890335 3.092699 -7.762853 11.199197 22.669179 -6.112616 1.148965 -0.361670 0.000000 0.000000 0.000000 7.708998 50.013773 -8.445121 -0.269974 -3.163821 0.907988 2.098167 -0.358006 -0.309542 1.366778 -0.009607 0.193438 0.000000 0.000000 0.000000 2.778222 -0.513789 -0.233693 -5.238811 -8.787179 -0.534374 -1.113073 -36.989429 5.718318 0.000000 0.000000 0.000000 2.044984 -0.619688 -0.093120 0.428739 -7.585746 -5.471021 -2.604191 -1.655412 -1.144078 -10.060367 -44.919641 -46.800166 179.171080 -68.095989 178.307703 0.000000 0.000000 0.000000 2.467935 -0.523769 -0.303821 0.229615 -0.643096 7.773091 -3.333485 2.823691 -0.805005 -28.450730 -3.987349 40.519650 -178.416794 62.588090 177.672331 0.000000 0.000000 0.000000 
0.324917 34.821598 -1.063852 0.000000 0.000000 0.000000 3.970998 45.593169 -7.919644 -11.880160 3.473550 20.994246 42.065229 2.559749 5.512980 6.523479 2.195595 -15.027574 -20.494927 1.527345 -8.079072 0.000000 0.000000 0.000000 6.578796 42.729141 -8.701652 -14.158501 -0.885892 -18.172862 5.411487 11.693810 3.609064 -6.274119 9.389303 19.671339 -3.856335 1.291113 0.025013 0.000000 0.000000 0.000000 6.867684 44.136396 -7.465940 0.046185 -2.520496 1.620174 2.062337 -0.032837 -0.369557 1.079644 -0.035628 0.089156 0.000000 0.000000 0.000000 3.012126 -0.145292 -0.320303 -4.680043 -7.610797 -0.056662 -0.218249 -33.505865 5.610632 0.000000 0.000000 0.000000 2.317370 -0.256962 -0.143433 0.371611 -6.597057 -4.195352 -2.096721 -0.976898 -1.771100 -14.580912 -42.754723 -46.956939 179.926621 -66.910186 179.035719 0.000000 0.000000 0.000000 2.532201 -0.227978 -0.471383 0.393467 0.531534 7.600105 -2.736700 2.937503 -0.461277 -29.750415 -0.577978 37.709020 -177.954172 62.552491 177.243901 0.000000 0.000000 0.000000 
0.741343 35.814495 -1.329033 0.000000 0.000000 0.000000 2.460471 39.534979 -6.386445 -12.690322 4.659309 19.194285 41.590535 3.873527 4.276736 11.324148 0.108823 -10.558288 -30.204486 2.091915 -7.488823 0.000000 0.000000 0.000000 4.036231 36.731122 -6.855994 -14.899689 -2.898932 -15.569469 9.611162 9.277803 3.525820 -5.700808 5.911243 15.262505 -3.368387 1.112986 0.413373 0.000000 0.000000 0.000000 5.379141 38.805696 -6.003566 0.674356 -1.778915 1.986153 2.145921 0.369864 -0.411648 0.832101 -0.140233 -0.150719 0.000000 0.000000 0.000000 3.096680 0.208214 -0.381165 -4.187137 -6.229865 0.257984 0.644893 -29.520330 5.352630 0.000000 0.000000 0.000000 2.592844 0.123909 -0.248019 0.283135 -5.587730 -3.489394 -1.997327 -0.201785 -2.338739 -17.232671 -39.968133 -47.138052 -179.792121 -66.569633 179.327163 0.000000 0.000000 0.000000 2.632032 0.139481 -0.619549 0.576237 1.798639 7.910591 -2.271459 3.300735 -0.375081 -29.957807 2.903913 35.905017 -177.740155 63.504859 177.212045 0.000000 0.000000 0.000000 
1.140037 36.292542 -1.617659 0.000000 0.000000 0.000000 1.013113 32.632919 -4.467066 -14.428732 6.373236 17.306617 41.776900 5.256100 3.368677 9.802522 -0.361265 -7.191735 -29.466515 2.776482 -8.703364 0.000000 0.000000 0.000000 1.667923 31.712623 -4.814444 -16.400408 -4.334351 -14.737409 18.219174 7.427886 3.260116 -5.751653 2.161441 11.310682 -3.603554 0.765270 0.814749 0.000000 0.000000 0.000000 3.632301 33.417701 -4.358217 1.400141 -1.027768 1.919415 2.304421 0.788742 -0.428967 0.839680 -0.232357 -0.130878 0.000000 0.000000 0.000000 3.054074 0.525650 -0.402472 -3.608359 -4.770185 0.375013 1.362801 -25.387263 4.980737 0.000000 0.000000 0.000000 2.828914 0.480844 -0.379963 0.216402 -4.573816 -3.459652 -2.226964 0.458464 -2.619631 -17.878403 -37.013936 -47.634767 -179.834496 -67.108671 179.375821 0.000000 0.000000 0.000000 2.781884 0.547138 -0.724572 0.745994 2.891901 8.743029 -2.044751 3.786948 -0.695069 -29.363434 5.649988 35.385492 -177.938312 65.237302 177.616187 0.000000 0.000000 0.000000 
1.438264 36.406624 -1.908342 0.000000 0.000000 0.000000 0.325621 25.982482 -2.541097 -17.322461 6.424292 16.200249 41.448262 4.757549 3.018848 7.789244 -0.737001 -8.755203 -19.096135 2.887934 -10.245266 0.000000 0.000000 0.000000 0.373238 27.423203 -2.931198 -17.637299 -5.098279 -15.842361 27.304228 6.538537 2.844593 -5.823973 -0.761461 8.780633 -3.870375 0.462549 1.232945 0.000000 0.000000 0.000000 2.127816 27.997750 -2.886687 1.886179 -0.311405 1.492927 2.461492 1.161461 -0.444515 0.624815 -0.358100 0.335222 0.000000 0.000000 0.000000 2.979262 0.817082 -0.374264 -2.894711 -3.269398 0.319820 1.797397 -21.437442 4.549351 0.000000 0.000000 0.000000 2.948141 0.808214 -0.511627 0.185937 -3.604751 -4.083358 -2.632970 0.592461 -2.420407 -16.415472 -34.376762 -48.306728 179.793078 -68.104991 179.147556 0.000000 0.000000 0.000000 2.901661 0.954591 -0.761658 0.896786 3.687309 9.914101 -1.950165 4.130691 -1.258496 -28.459013 7.388453 36.141321 -178.410716 67.151886 178.226560 0.000000 0.000000 0.000000 
1.631171 36.279427 -1.896881 0.000000 0.000000 0.000000 0.577261 19.807907 -0.894756 -21.010345 5.165120 16.669476 39.766341 2.327952 3.028350 9.008161 -1.859369 -14.821980 -7.367929 2.323231 -9.950427 0.000000 0.000000 0.000000 0.283752 22.992240 -1.249051 -18.002475 -5.254466 -18.437877 33.077954 6.561190 2.132958 -4.950249 -2.356736 8.305905 -5.681394 0.265001 1.583886 0.000000 0.000000 0.000000 0.940258 22.329598 -1.628950 1.974400 0.290927 0.885159 2.521054 1.468196 -0.463552 0.604463 -0.768866 0.788998 0.000000 0.000000 0.000000 2.910457 1.086303 -0.334931 -2.186609 -1.857956 0.180343 1.933878 -17.857808 4.166531 0.000000 0.000000 0.000000 2.846457 1.115896 -0.622852 0.172097 -2.801506 -5.151046 -3.207737 -0.137799 -1.949975 -13.569875 -31.742840 -48.999173 179.345181 -68.981762 178.933526 0.000000 0.000000 0.000000 2.909246 1.317106 -0.727279 0.996171 4.116543 11.183751 -1.985681 4.048719 -1.769317 -27.666807 8.339608 37.849647 -179.027509 68.669479 178.878269 0.000000 0.000000 0.000000 
1.701152 35.928886 -1.818623 0.000000 0.000000 0.000000 1.542929 13.649877 0.340200 -23.460272 3.912166 17.930812 36.087431 -0.266392 3.383516 11.104469 -3.674778 -20.491811 -2.358113 1.818234 -6.679713 0.000000 0.000000 0.000000 1.010458 17.936838 0.020868 -17.454892 -5.135083 -21.718851 34.365246 7.448489 1.453316 -3.172252 -2.630760 9.720011 -9.424491 0.133615 1.942655 0.000000 0.000000 0.000000 0.531626 16.211251 -0.777457 1.706028 0.820219 0.329873 2.480781 1.719726 -0.501088 0.742371 -1.103847 1.034340 0.000000 0.000000 0.000000 2.829814 1.363890 -0.314997 -1.666105 -0.655330 -0.001241 1.825886 -14.650757 3.908597 0.000000 0.000000 0.000000 2.552995 1.426355 -0.694615 0.164534 -2.147916 -6.308145 -3.593143 -1.143442 -1.490515 -10.614821 -28.812958 -49.438675 179.095251 -69.532856 178.991855 0.000000 0.000000 0.000000 2.766090 1.637314 -0.670453 1.040356 4.245490 12.274376 -2.085580 3.616531 -2.080606 -27.256864 9.185668 39.989088 -179.564034 69.474936 179.351533 0.000000 0.000000 0.000000 
